<?xml version="1.0" encoding="UTF-8"?>
<svg id="Ebene_1" xmlns="http://www.w3.org/2000/svg" xmlns:xlink="http://www.w3.org/1999/xlink" viewBox="0 0 300 150">
  <defs>
    <style>
      .cls-1 {
        fill: #e4bb50;
      }

      .cls-2, .cls-3 {
        fill: none;
      }

      .cls-3 {
        stroke: #e4bb50;
        stroke-linecap: round;
        stroke-miterlimit: 10;
        stroke-width: 3px;
      }

      .cls-4 {
        fill: #575756;
      }

      .cls-5 {
        fill: url(#Unbenannter_Verlauf_4);
      }
    </style>
    <linearGradient id="Unbenannter_Verlauf_4" data-name="Unbenannter Verlauf 4" x1="129.2" y1="77.64" x2="151.07" y2="77.64" gradientUnits="userSpaceOnUse">
      <stop offset="0" stop-color="#e4bb50"/>
      <stop offset="1" stop-color="#3c3c3b"/>
    </linearGradient>
  </defs>
  <g>
    <path class="cls-1" d="M52.96,83.35c.63,2.77,2.62,3.98,5.81,3.98s4.54-1.26,4.54-3.28c0-2.24-1.33-3.22-6.04-4.31-7.5-1.76-9.36-4.49-9.36-8.21,0-4.81,3.6-8.07,10.12-8.07,7.32,0,10.24,3.94,10.63,7.97h-6.01c-.29-1.7-1.23-3.54-4.78-3.54-2.42,0-3.88,1-3.88,2.96s1.17,2.69,5.63,3.73c8.02,1.89,9.78,4.87,9.78,8.76,0,5.03-3.81,8.49-11.1,8.49s-10.69-3.45-11.35-8.47h6.01Z"/>
    <path class="cls-1" d="M99.54,77.55c0,7.67-4.61,14.28-13.56,14.28s-13.18-6.29-13.18-14.19,5-14.19,13.57-14.19c8.07,0,13.18,5.65,13.18,14.09ZM78.95,77.53c0,5.38,2.36,9.46,7.25,9.46,5.3,0,7.18-4.44,7.18-9.35,0-5.22-2.14-9.32-7.28-9.32s-7.15,3.85-7.15,9.21Z"/>
    <path class="cls-1" d="M104.76,63.86h5.96v22.69h13.73l-.68,4.89h-19.02v-27.57Z"/>
  </g>
  <g>
    <path class="cls-4" d="M162.51,85.06l-2.15,6.37h-5.86l9.36-27.57h7.49l9.77,27.57h-6.27l-2.27-6.37h-10.07ZM171.3,80.17c-1.96-5.82-3.21-9.54-3.87-12.02h-.04c-.68,2.72-2.06,7.04-3.63,12.02h7.54Z"/>
    <path class="cls-4" d="M187.29,68.74h-8.38v-4.89h22.69v4.89h-8.35v22.69h-5.97v-22.69Z"/>
    <path class="cls-4" d="M224.27,79.54h-13.19v7h14.55l-.71,4.89h-19.62v-27.57h19.55v4.89h-13.77v5.91h13.19v4.89Z"/>
    <path class="cls-4" d="M234.42,83.34c.63,2.77,2.62,3.98,5.81,3.98s4.54-1.26,4.54-3.28c0-2.24-1.33-3.22-6.04-4.31-7.5-1.76-9.36-4.49-9.36-8.21,0-4.81,3.6-8.07,10.12-8.07,7.32,0,10.24,3.94,10.63,7.97h-6.01c-.29-1.7-1.23-3.54-4.78-3.54-2.42,0-3.88,1-3.88,2.96s1.17,2.69,5.63,3.73c8.02,1.89,9.78,4.87,9.78,8.76,0,5.03-3.81,8.49-11.1,8.49s-10.68-3.45-11.35-8.47h6.01Z"/>
    <path class="cls-4" d="M254.88,91.43v-7.02h6.15v7.02h-6.15Z"/>
  </g>
  <g>
    <line class="cls-3" x1="60.77" y1="59.59" x2="60.17" y2="46.55"/>
    <line class="cls-3" x1="53.49" y1="59.67" x2="50.98" y2="53.65"/>
    <line class="cls-3" x1="48.14" y1="63.33" x2="39.31" y2="53.73"/>
    <line class="cls-3" x1="44.12" y1="67.02" x2="38.32" y2="64.03"/>
    <line class="cls-3" x1="43.1" y1="73.19" x2="30.16" y2="71.52"/>
  </g>
  <path class="cls-5" d="M140.38,79.86c-1.12-4.25-5.24-9.2-5.84-11.95h-.19c.24,3.23,4.58,13.73.35,23.51h-5.32c-.06,0-.12-.05-.1-.11.24-1.16,2.47-8.48,2.68-10.7.87-9.41-3.31-9.06-2.7-16.66,0-.05.05-.1.1-.1h8.7s.06.01.08.04c.01.01.01.03.02.03.07.23,1.48,6.19,2.22,8.67.74-2.48,1.66-8.44,1.73-8.67,0,0,0-.02.02-.03.02-.02.05-.04.08-.04h8.7c.05,0,.1.04.1.1.62,7.6-3.57,7.24-2.7,16.66.21,2.23,2.44,9.54,2.68,10.7.01.06-.04.11-.1.11h-5.32c-4.23-9.78.12-20.28.35-23.51h-.19c-.6,2.75-4.24,7.7-5.35,11.95"/>
  <rect class="cls-2" x="2.7" y="15.55" width="294.6" height="118.9"/>
</svg>